<svg height="43" viewBox="0 0 182 43" width="182" xmlns="http://www.w3.org/2000/svg"><g fill="none" fill-rule="evenodd"><path d="m1.35626452 43.8499742c.21219354.0745161.43716129.1234839.6756129.1234839h12.55135488v-14.4419355h14.676129v14.4419355h12.4420645c1.122 0 2.0318065-.9090968 2.0318065-2.0318065v-10.7416774c-.2682581-.9687097-1.1489678-1.6840645-2.2063871-1.6840645h-12.2930323v-12.2490323c0-1.2646451-1.0290323-2.290129-2.2986452-2.290129h-12.3434193v-12.29941937c0-1.23129032-.9772258-2.22767742-2.2-2.28019355h-10.35987098c-1.122 0-2.03180645.90980646-2.03180645 2.03180646v39.33599996c0 .9296775.55780645 1.7259355 1.35619355 2.0850323" fill="#00b9cf" transform="translate(0 -1)"/><path d="m68.21875 12.234375h7.6171875v3.2226562h-1.875v11.3320313h1.875v3.2109375h-7.6171875v-3.2109375h1.8515625v-4.546875h-8.015625v4.546875h1.875v3.2109375h-7.6054687v-3.2109375h1.8398437v-11.3320313h-1.8398437v-3.2226562h7.6054687v3.2226562h-1.875v3.6914063h8.015625v-3.6914063h-1.8515625zm10.2539062 0h7.6054688v3.2109375h-1.875v11.34375h1.875v3.2109375h-7.6054688v-3.2109375h1.8398438v-11.34375h-1.8398438zm20.71875 0h6.7499998v3.2226562h-1.441406v14.5429688h-3.890625l-7.3945312-11.484375v8.2734375h1.4882812v3.2109375h-6.7382812v-3.2109375h1.4648437v-11.3320313h-1.4414063v-3.2226562h5.3671876l7.3476562 11.6367188v-8.4140626h-1.5117188zm17.8124998 14.5546875h1.769532l-.796876-2.5546875h-5.460937l-.796875 2.5546875h1.875v3.2109375h-6.738281v-3.2109375h1.324219l4.839843-14.5546875h4.699219l4.734375 14.5546875h1.289063v3.2109375h-6.738282zm-3.5625-5.5546875h3.585938l-1.804688-5.7773438zm11.53125-9h6.820313c.812504 0 1.591793.1054677 2.33789.3164062.746098.2109386 1.441403.5078106 2.085938.890625.644534.3828145 1.230466.8417942 1.757812 1.3769532.527347.5351589.978514 1.1308561 1.353516 1.7871094.375002.6562532.664061 1.3632774.867187 2.1210937.203127.7578163.304688 1.5468709.304688 2.3671875s-.101561 1.6093712-.304688 2.3671875c-.203126.7578163-.492185 1.4667936-.867187 2.1269531-.375002.6601596-.826169 1.2617161-1.353516 1.8046875-.527346.5429715-1.113278 1.0078106-1.757812 1.3945313-.644535.3867207-1.33984.6855458-2.085938.8964844-.746097.2109385-1.525386.3164062-2.33789.3164062h-6.820313v-3.2109375h1.417969v-11.3320313h-1.417969zm5.308594 3.2226562v11.3320313h1.488281c.632816 0 1.230466-.148436 1.792969-.4453125s1.050779-.7011693 1.464844-1.2128906c.414064-.5117213.742186-1.1132778.984375-1.8046875.242188-.6914097.363281-1.4355429.363281-2.2324219 0-.7890664-.121093-1.5273403-.363281-2.2148438-.242189-.6875034-.570311-1.2851537-.984375-1.7929687-.414065-.507815-.902341-.9062486-1.464844-1.1953125s-1.160153-.4335938-1.792969-.4335938zm21.398438 11.3320313h1.769531l-.796875-2.5546875h-5.460938l-.796875 2.5546875h1.875v3.2109375h-6.738281v-3.2109375h1.324219l4.839843-14.5546875h4.699219l4.734375 14.5546875h1.289063v3.2109375h-6.738281zm-3.5625-5.5546875h3.585937l-1.804687-5.7773438zm23.121093-9h6.75v3.2226562h-1.441406v14.5429688h-3.890625l-7.394531-11.484375v8.2734375h1.488281v3.2109375h-6.738281v-3.2109375h1.464843v-11.3320313h-1.441406v-3.2226562h5.367188l7.347656 11.6367188v-8.4140626h-1.511719z" fill="#fff"/></g></svg>